<svg width="11" height="11" viewBox="0 0 11 16" fill="none" xmlns="http://www.w3.org/2000/svg">
<path d="M9.78493 0.654541H1.21508C0.890384 0.654541 0.578987 0.783526 0.349393 1.01312C0.119799 1.24271 -0.00918579 1.55411 -0.00918579 1.87881V15.3457C-0.00913144 15.455 0.0201565 15.5622 0.0756387 15.6563C0.131121 15.7504 0.210776 15.8279 0.306338 15.8809C0.401899 15.9338 0.509885 15.9602 0.61909 15.9573C0.728295 15.9545 0.834739 15.9224 0.927377 15.8645L5.50001 13.0066L10.0734 15.8645C10.166 15.9222 10.2724 15.9541 10.3815 15.9569C10.4906 15.9596 10.5984 15.9332 10.6939 15.8803C10.7893 15.8274 10.8689 15.7499 10.9243 15.6559C10.9797 15.5619 11.0091 15.4548 11.0092 15.3457V1.87881C11.0092 1.55411 10.8802 1.24271 10.6506 1.01312C10.421 0.783526 10.1096 0.654541 9.78493 0.654541ZM9.78493 14.2416L5.82367 11.7663C5.72638 11.7055 5.61397 11.6732 5.49924 11.6732C5.38451 11.6732 5.2721 11.7055 5.17481 11.7663L1.21508 14.2416V1.87881H9.78493V14.2416Z" fill="#FF6F22"/>
</svg>
