<svg width="22" height="16" viewBox="0 0 22 16" fill="none" xmlns="http://www.w3.org/2000/svg">
<path d="M21.7106 7.57514L17.43 1.15983C17.2937 0.954354 17.1087 0.785787 16.8915 0.669157C16.6743 0.552526 16.4316 0.491458 16.185 0.491394H2.33624C1.93842 0.491394 1.55689 0.649429 1.27558 0.930734C0.994278 1.21204 0.836243 1.59357 0.836243 1.99139V13.9914C0.836243 14.3892 0.994278 14.7707 1.27558 15.0521C1.55689 15.3334 1.93842 15.4914 2.33624 15.4914H16.185C16.4314 15.4909 16.6738 15.4298 16.891 15.3134C17.1081 15.197 17.2933 15.0288 17.43 14.8239L21.7078 8.40764C21.7905 8.28467 21.8348 8.13998 21.8353 7.99182C21.8358 7.84366 21.7924 7.69867 21.7106 7.57514ZM16.185 13.9914H2.33624V1.99139H16.185L20.1844 7.99139L16.185 13.9914Z" fill="black"/>
</svg>
