<svg width="23" height="17" viewBox="0 0 23 17" fill="none" xmlns="http://www.w3.org/2000/svg">
<path d="M16.5427 5.00153V4.4883C16.5427 2.17742 13.057 0.434113 8.43428 0.434113C3.81158 0.434113 0.325893 2.17742 0.325893 4.4883V8.17393C0.325893 10.0988 2.74459 11.6283 6.2229 12.0862V12.5967C6.2229 14.9076 9.70858 16.6509 14.3313 16.6509C18.954 16.6509 22.4397 14.9076 22.4397 12.5967V8.91106C22.4397 7.00375 20.0974 5.47237 16.5427 5.00153ZM20.9654 8.91106C20.9654 10.1292 18.1284 11.491 14.3313 11.491C13.9876 11.491 13.6467 11.479 13.3104 11.4569C15.2978 10.7327 16.5427 9.55604 16.5427 8.17393V6.49144C19.2949 6.90147 20.9654 8.01453 20.9654 8.91106ZM6.2229 10.5926V8.4006C6.95614 8.49614 7.69484 8.54354 8.43428 8.5425C9.17371 8.54354 9.91242 8.49614 10.6457 8.4006V10.5926C9.91351 10.7008 9.17437 10.7547 8.43428 10.7539C7.69418 10.7547 6.95505 10.7008 6.2229 10.5926ZM15.0684 6.87751V8.17393C15.0684 8.94699 13.9249 9.77718 12.1199 10.2812V8.12786C13.3094 7.83946 14.3165 7.41009 15.0684 6.87751ZM8.43428 1.90836C12.2314 1.90836 15.0684 3.2702 15.0684 4.4883C15.0684 5.7064 12.2314 7.06824 8.43428 7.06824C4.63716 7.06824 1.80014 5.7064 1.80014 4.4883C1.80014 3.2702 4.63716 1.90836 8.43428 1.90836ZM1.80014 8.17393V6.87751C2.55201 7.41009 3.55911 7.83946 4.74865 8.12786V10.2812C2.94361 9.77718 1.80014 8.94699 1.80014 8.17393ZM7.69715 12.5967V12.2125C7.93948 12.2217 8.18458 12.2281 8.43428 12.2281C8.79178 12.2281 9.141 12.2161 9.48376 12.1959C9.86454 12.3322 10.2524 12.4478 10.6457 12.5423V14.7039C8.84062 14.1999 7.69715 13.3697 7.69715 12.5967ZM12.1199 15.0154V12.8178C12.8529 12.9164 13.5917 12.9656 14.3313 12.9653C15.0707 12.9663 15.8094 12.9189 16.5427 12.8234V15.0154C15.0762 15.2304 13.5863 15.2304 12.1199 15.0154ZM18.0169 14.7039V12.5506C19.2064 12.2622 20.2135 11.8328 20.9654 11.3003V12.5967C20.9654 13.3697 19.8219 14.1999 18.0169 14.7039Z" fill="currentColor"/>
</svg>
