                        <svg width="20" height="16" viewBox="0 0 24 20" fill="none" xmlns="http://www.w3.org/2000/svg">
                            <path d="M9.25695 9.99971C10.6382 9.99971 11.657 8.98091 11.657 7.59971C11.657 6.21851 10.6382 5.19971 9.25695 5.19971C7.87575 5.19971 6.85695 6.21851 6.85695 7.59971C6.85695 8.98091 7.87455 9.99971 9.25695 9.99971Z"
                                fill="currentColor" />
                            <path d="M21.6 0.399902H2.4C1.0764 0.399902 0 1.4091 0 2.6499V17.3499C0 18.5907 1.0764 19.5999 2.4 19.5999H21.6C22.9236 19.5999 24 18.5907 24 17.3499V2.6499C24 1.4091 22.9236 0.399902 21.6 0.399902ZM21.6 17.1999L2.4 17.1867V2.7999L21.6 2.8131V17.1999Z"
                                fill="currentColor" />
                            <path d="M14.4014 6.39941H19.2014V8.79941H14.4014V6.39941ZM15.6014 11.1994H19.2014V13.5994H15.6014V11.1994ZM13.7174 14.2426C13.7174 12.5938 11.7062 10.8994 9.25941 10.8994C6.81261 10.8994 4.80141 12.5938 4.80141 14.2426V14.7994H13.7174V14.2426Z"
                                fill="currentColor" />
                        </svg>
