                        <svg width="20" height="20" viewBox="0 0 26 26" fill="none" xmlns="http://www.w3.org/2000/svg">
                            <path d="M7.50855 19.577L7.50852 19.577C6.96322 19.6566 6.55146 20.1334 6.55146 20.7072V20.7076C6.55075 20.9577 6.63252 21.2009 6.7841 21.3998C7.07156 21.7741 7.36665 22.1424 7.66919 22.5046L7.8748 22.7508H7.55406H6.00786H5.935L5.88996 22.6935C5.79237 22.5694 5.69426 22.443 5.59507 22.3144C5.23889 21.8524 5.05146 21.283 5.05146 20.7078C5.05146 19.4124 5.98691 18.2839 7.29177 18.0934C11.5405 17.4725 14.4973 17.5287 18.719 18.113C20.0111 18.2915 20.9514 19.4034 20.9515 20.6915C20.9515 20.6915 20.9515 20.6916 20.9515 20.6916H20.8015C20.8019 21.2547 20.6078 21.8008 20.2519 22.2372L7.50855 19.577ZM7.50855 19.577C11.5996 18.9793 14.413 19.0305 18.5129 19.5981L7.50855 19.577ZM14.3217 13.1876C13.9031 13.361 13.4545 13.4502 13.0015 13.4502C12.0865 13.4502 11.2089 13.0867 10.5619 12.4397C9.91495 11.7927 9.55147 10.9152 9.55147 10.0002C9.55147 9.0852 9.91495 8.20768 10.5619 7.56068C11.2089 6.91368 12.0865 6.5502 13.0015 6.5502C13.4545 6.5502 13.9031 6.63943 14.3217 6.81281C14.7403 6.98619 15.1206 7.24031 15.441 7.56068C15.7613 7.88104 16.0155 8.26136 16.1888 8.67994C16.3622 9.09851 16.4515 9.54713 16.4515 10.0002C16.4515 10.4533 16.3622 10.9019 16.1888 11.3205C16.0155 11.739 15.7613 12.1194 15.441 12.4397C15.1206 12.7601 14.7403 13.0142 14.3217 13.1876ZM13.0015 14.9502C14.3143 14.9502 15.5733 14.4287 16.5016 13.5004C17.4299 12.5721 17.9515 11.313 17.9515 10.0002C17.9515 8.68737 17.4299 7.42832 16.5016 6.50002C15.5733 5.57171 14.3143 5.0502 13.0015 5.0502C11.6886 5.0502 10.4296 5.57171 9.50129 6.50002C8.57298 7.42832 8.05146 8.68737 8.05146 10.0002C8.05146 11.313 8.57298 12.5721 9.50129 13.5004C10.4296 14.4287 11.6886 14.9502 13.0015 14.9502Z" fill="currentColor" stroke="currentColor" strokeWidth="0.3" />
                            <path d="M23.65 13C23.65 18.8818 18.8818 23.65 13 23.65C7.11824 23.65 2.35 18.8818 2.35 13C2.35 7.11824 7.11824 2.35 13 2.35C18.8818 2.35 23.65 7.11824 23.65 13ZM13 25.15C19.7104 25.15 25.15 19.7104 25.15 13C25.15 6.28956 19.7104 0.85 13 0.85C6.28956 0.85 0.85 6.28956 0.85 13C0.85 19.7104 6.28956 25.15 13 25.15Z" fill="currentColor" stroke="currentColor" stroke-width="0.3" />
                        </svg>
